<?xml version="1.0" encoding="utf-8"?>
<svg xmlns="http://www.w3.org/2000/svg" viewBox="117.8433 22.629 44.2945 47.6048" width="553.629px" height="595.004px" preserveAspectRatio="none"><g id="object-5"><g id="group-1" transform="matrix(1, 0, 0, 1, 103.542413, 20.92335)"><g><path d="M 58.576 3.682 C 58.566 2.809 57.989 2.012 57.105 1.774 C 56.041 1.489 54.947 2.122 54.662 3.187 C 54.615 3.362 54.601 3.537 54.602 3.709 C 54.601 3.711 54.595 3.711 54.595 3.712 C 54.595 11.42 42.595 17.712 42.595 17.712 L 46.595 19.712 C 46.595 19.712 58.595 14.199 58.595 3.712 C 58.598 3.701 58.584 3.692 58.576 3.682 Z" style="fill-rule:evenodd;clip-rule:evenodd;fill:#FFCC66;" id="object-4"/></g></g><g id="group-2" transform="matrix(1, 0, 0, 1, 103.542413, 20.92335)"><g><path d="M53.426,18.625L45.32,10.52c-0.745-0.746-1.955-0.746-2.701,0l-8.105,8.105    c-0.746,0.746-0.746,1.956,0,2.701l8.105,8.105c0.746,0.746,1.956,0.746,2.701,0l8.105-8.105    C54.172,20.581,54.172,19.371,53.426,18.625z" style="fill: rgb(83, 83, 84);"/></g></g><g id="_x34_" transform="matrix(0.070319, 0, 0, 0.070319, 160.709017, -791.944836)" style="filter: drop-shadow(rgba(0, 0, 0, 0.3) 10px 10px 7px); transform-origin: -24.864px 844.177px;"><g id="SVGRepo_bgCarrier" stroke-width="0" transform="matrix(1, 0, 0, 1, -183.157733, 238.062443)"/><g id="SVGRepo_tracerCarrier" stroke-linecap="round" stroke-linejoin="round" transform="matrix(1, 0, 0, 1, -183.157733, 238.062443)"/><g id="SVGRepo_iconCarrier" transform="matrix(1, 0, 0, 1, -183.157733, 238.062443)"><g transform="matrix(1, 0, 0, 1, 59.709, 23.07)" style="transform-origin: 226.146px 167.793px;"><path style="opacity:0.06;fill:#afafb2040000;" d="M 98.704 838.804 C 164.26 838.804 229.817 813.852 279.724 763.945 C 379.538 664.131 379.538 501.72 279.724 401.907 C 229.816 351.998 164.26 327.045 98.704 327.045 L 98.704 838.804 Z"/><g transform="matrix(1, 0, 0, 1, -157.415881, 327.045018)"><path style="fill:#afafb2;" d="M256,512C114.841,512,0,397.159,0,256S114.841,0,256,0s256,114.841,256,256S397.159,512,256,512z"/><g style="opacity:0.5;"><path style="fill:#afafb2C69949;" d="M256.001,472.633c-119.452,0-216.633-97.181-216.633-216.633s97.18-216.633,216.633-216.633 c119.452,0,216.633,97.18,216.633,216.633S375.453,472.633,256.001,472.633z M256.001,94.604 c-88.994,0-161.396,72.402-161.396,161.396s72.402,161.396,161.396,161.396c88.994,0,161.396-72.402,161.396-161.396 S344.994,94.604,256.001,94.604z"/></g><g><circle style="fill:#afafb2;" cx="65.963" cy="256" r="9.56"/><circle style="fill:#afafb2;" cx="444.121" cy="256" r="9.56"/></g></g><path style="opacity:0.06;fill:#afafb2040000;" d="M 98.704 838.804 C 164.26 838.804 229.817 813.852 279.724 763.945 C 379.538 664.131 379.538 501.72 279.724 401.907 C 229.816 351.998 164.26 327.045 98.704 327.045 L 98.704 838.804 Z"/></g></g><animateTransform type="rotate" additive="sum" attributeName="transform" values="0; 0" begin="24.81s" dur="2s" fill="freeze"/></g><text style="fill: rgb(51, 51, 51); font-family: Arial, sans-serif; font-size: 28px; font-weight: 700; white-space: pre;" transform="matrix(0.53618, 0, 0, 0.472513, 95.30491, 110.829797)" x="75.932" y="-114.5" id="object-0">N</text><text style="fill: rgb(51, 51, 51); font-family: Arial, sans-serif; font-size: 28px; font-weight: 700; white-space: pre;" transform="matrix(0.53618, 0, 0, 0.472513, 85.07644, 110.839296)" x="75.932" y="-114.5" id="object-2">X</text></g></svg>