<?xml version="1.0" encoding="utf-8"?>
<svg xmlns="http://www.w3.org/2000/svg" viewBox="0 0 500 500" xmlns:bx="https://boxy-svg.com" width="500px" height="500px"><defs><path id="path-0" d="M 184.008 83.885 C 193.795 79.444 201.956 72.691 206.215 70.561 C 212.257 69.081 216.661 67.6 223.981 67.6 C 230.631 66.12 237.378 64.639 244.708 64.639 C 253.097 64.639 260.006 64.639 266.915 64.639 C 271.738 64.639 286.161 65.195 286.161 69.081 C 296.6 70.561 296.117 75.003 303.927 75.003 L 305.408 75.003 C 305.408 78.506 315.253 82.405 318.732 82.405" style="fill: none;"/><bx:export><bx:file format="svg" path="XNcoinGold.svg" normalization="{&quot;removeBoxySVGMetadata&quot;:true}"/></bx:export></defs><g id="SVGRepo_bgCarrier" stroke-width="0" transform="matrix(0.878906, 0, 0, 0.878906, 110.571436, -288.320775)" style="filter: drop-shadow(rgba(0, 0, 0, 0.3) 10px 10px 7px);"/><g id="SVGRepo_tracerCarrier" stroke-linecap="round" stroke-linejoin="round" transform="matrix(0.878906, 0, 0, 0.878906, 110.571436, -288.320775)" style="filter: drop-shadow(rgba(0, 0, 0, 0.3) 10px 10px 7px);"/><g id="SVGRepo_iconCarrier" transform="matrix(0.878906, 0, 0, 0.878906, 110.571436, -288.320775)" style="filter: drop-shadow(rgba(0, 0, 0, 0.3) 10px 10px 7px);"><g transform="matrix(1, 0, 0, 1, 59.709, 23.07)" style="transform-origin: 226.146px 167.793px;"><path style="opacity:0.06;fill:#afafb2040000;" d="M 98.704 838.804 C 164.26 838.804 229.817 813.852 279.724 763.945 C 379.538 664.131 379.538 501.72 279.724 401.907 C 229.816 351.998 164.26 327.045 98.704 327.045 L 98.704 838.804 Z"/><g transform="matrix(1, 0, 0, 1, -157.415881, 327.045018)"><path style="fill: rgb(248, 209, 118);" d="M256,512C114.841,512,0,397.159,0,256S114.841,0,256,0s256,114.841,256,256S397.159,512,256,512z"/><g style="opacity:0.5;"><path style="fill: rgb(198, 153, 73);" d="M256.001,472.633c-119.452,0-216.633-97.181-216.633-216.633s97.18-216.633,216.633-216.633 c119.452,0,216.633,97.18,216.633,216.633S375.453,472.633,256.001,472.633z M256.001,94.604 c-88.994,0-161.396,72.402-161.396,161.396s72.402,161.396,161.396,161.396c88.994,0,161.396-72.402,161.396-161.396 S344.994,94.604,256.001,94.604z"/></g><g><circle style="fill: rgb(248, 209, 118);" cx="65.963" cy="256" r="9.56"/><circle style="fill: rgb(248, 209, 118);" cx="444.121" cy="256" r="9.56"/></g></g><path style="opacity:0.06;fill:#afafb2040000;" d="M 98.704 838.804 C 164.26 838.804 229.817 813.852 279.724 763.945 C 379.538 664.131 379.538 501.72 279.724 401.907 C 229.816 351.998 164.26 327.045 98.704 327.045 L 98.704 838.804 Z"/></g></g><animateTransform type="rotate" additive="sum" attributeName="transform" values="0; 0" begin="24.81s" dur="2s" fill="freeze" style="filter: drop-shadow(rgba(0, 0, 0, 0.3) 10px 10px 7px);"/><text style="fill: rgb(198, 153, 73); font-family: Arial, sans-serif; font-size: 28px; font-weight: 700; white-space: pre;" transform="matrix(6.701626, 0, 0, 5.905858, -386.981115, 979.483779)" x="75.932" y="-114.5">X</text><text style="white-space: pre; fill: rgb(51, 51, 51); font-family: Arial, sans-serif; font-size: 28px;" x="349.822" y="-86.371"> </text><text style="fill: rgb(198, 153, 73); font-family: Arial, sans-serif; font-size: 28px; font-weight: 700; white-space: pre;" transform="matrix(6.701626, 0, 0, 5.905858, -258.548801, 979.990371)" x="75.932" y="-114.5">N</text></svg>